<svg width="255" height="39" viewBox="0 0 255 39" fill="none" xmlns="http://www.w3.org/2000/svg">
<path d="M17.604 26.892C16.692 27.9 15.552 28.68 14.184 29.232C12.84 29.784 11.376 30.06 9.792 30.06C8.328 30.06 6.996 29.832 5.796 29.376C4.596 28.896 3.564 28.236 2.7 27.396C1.836 26.556 1.164 25.548 0.684 24.372C0.228 23.172 -2.5332e-07 21.852 -2.5332e-07 20.412C-2.5332e-07 18.924 0.252 17.568 0.756 16.344C1.26 15.12 1.968 14.076 2.88 13.212C3.792 12.324 4.884 11.64 6.156 11.16C7.428 10.68 8.832 10.44 10.368 10.44C11.448 10.44 12.444 10.548 13.356 10.764C14.292 10.98 15.084 11.28 15.732 11.664C16.404 12.048 16.932 12.504 17.316 13.032C17.7 13.536 17.892 14.088 17.892 14.688C17.892 15.384 17.688 15.936 17.28 16.344C16.896 16.752 16.368 16.956 15.696 16.956C15.144 16.956 14.652 16.812 14.22 16.524C13.812 16.236 13.404 15.768 12.996 15.12C12.636 14.544 12.324 14.088 12.06 13.752C11.82 13.416 11.592 13.164 11.376 12.996C11.16 12.804 10.944 12.684 10.728 12.636C10.512 12.564 10.248 12.528 9.936 12.528C8.544 12.528 7.464 13.176 6.696 14.472C5.928 15.768 5.544 17.58 5.544 19.908C5.544 22.404 6 24.324 6.912 25.668C7.848 27.012 9.18 27.684 10.908 27.684C11.892 27.684 12.876 27.504 13.86 27.144C14.844 26.76 15.78 26.22 16.668 25.524L17.604 26.892ZM31.3003 19.62C29.2843 20.532 27.7603 21.384 26.7283 22.176C25.7203 22.944 25.2163 23.748 25.2163 24.588C25.2163 25.284 25.4083 25.836 25.7923 26.244C26.1763 26.652 26.6563 26.856 27.2323 26.856C27.8083 26.856 28.3483 26.76 28.8523 26.568C29.3563 26.352 29.7883 26.076 30.1483 25.74C30.5083 25.404 30.7843 25.008 30.9763 24.552C31.1923 24.072 31.3003 23.568 31.3003 23.04V19.62ZM31.3003 17.712V16.2C31.3003 14.808 31.0483 13.8 30.5443 13.176C30.0643 12.528 29.3083 12.204 28.2763 12.204C27.5803 12.204 27.0523 12.396 26.6923 12.78C26.3323 13.14 25.9963 13.752 25.6843 14.616C25.4683 15.216 25.1563 15.684 24.7483 16.02C24.3643 16.356 23.8243 16.524 23.1283 16.524C22.4563 16.524 21.9403 16.32 21.5803 15.912C21.2203 15.504 21.0403 14.928 21.0403 14.184C21.0403 13.032 21.6643 12.12 22.9123 11.448C24.1843 10.776 26.0923 10.44 28.6363 10.44C31.3243 10.44 33.2443 10.932 34.3963 11.916C35.5483 12.876 36.1243 14.496 36.1243 16.776V24.66C36.1243 26.7 36.5323 27.72 37.3483 27.72C37.8043 27.72 38.2243 27.564 38.6083 27.252L39.1483 28.296C38.8123 28.896 38.2843 29.376 37.5643 29.736C36.8683 30.072 36.0763 30.24 35.1883 30.24C34.0843 30.24 33.2443 29.904 32.6683 29.232C32.0923 28.56 31.8043 27.612 31.8043 26.388H31.6243C30.9283 27.636 30.0283 28.584 28.9243 29.232C27.8203 29.88 26.5603 30.204 25.1443 30.204C23.6323 30.204 22.4203 29.784 21.5083 28.944C20.5963 28.08 20.1403 26.964 20.1403 25.596C20.1403 24.54 20.6083 23.556 21.5443 22.644C22.4803 21.708 24.0403 20.796 26.2243 19.908L31.3003 17.712ZM48.8762 24.3C48.8762 25.236 48.9122 25.98 48.9842 26.532C49.0802 27.06 49.2602 27.468 49.5242 27.756C49.7882 28.044 50.1722 28.236 50.6762 28.332C51.1802 28.404 51.8522 28.44 52.6922 28.44V29.88H40.6682V28.44C41.3882 28.392 41.9642 28.32 42.3962 28.224C42.8282 28.128 43.1522 27.936 43.3682 27.648C43.5842 27.36 43.7162 26.952 43.7642 26.424C43.8362 25.872 43.8722 25.14 43.8722 24.228V19.836C43.8722 18.348 43.8362 17.16 43.7642 16.272C43.6922 15.384 43.5362 14.7 43.2962 14.22C43.0562 13.74 42.7082 13.428 42.2522 13.284C41.8202 13.116 41.2442 13.032 40.5242 13.032V11.772L47.7242 10.44L48.3002 14.58H48.4442C49.0922 13.308 49.9442 12.3 51.0002 11.556C52.0562 10.812 53.1722 10.44 54.3482 10.44C55.2602 10.44 56.0042 10.668 56.5802 11.124C57.1562 11.58 57.4442 12.156 57.4442 12.852C57.4442 13.62 57.2162 14.268 56.7602 14.796C56.3282 15.324 55.7282 15.588 54.9602 15.588C54.6002 15.588 54.2762 15.516 53.9882 15.372C53.7002 15.228 53.4362 15.072 53.1962 14.904C52.9802 14.712 52.7522 14.544 52.5122 14.4C52.2962 14.232 52.0682 14.148 51.8282 14.148C51.3722 14.148 50.9402 14.448 50.5322 15.048C50.1242 15.648 49.7882 16.452 49.5242 17.46C49.3322 18.18 49.1762 18.996 49.0562 19.908C48.9362 20.796 48.8762 21.684 48.8762 22.572V24.3ZM76.7469 26.532C74.5629 29.004 71.8389 30.24 68.5749 30.24C67.0869 30.24 65.7309 30.012 64.5069 29.556C63.3069 29.076 62.2749 28.416 61.4109 27.576C60.5469 26.712 59.8749 25.692 59.3949 24.516C58.9149 23.34 58.6749 22.032 58.6749 20.592C58.6749 19.104 58.9269 17.748 59.4309 16.524C59.9349 15.276 60.6429 14.208 61.5549 13.32C62.4909 12.408 63.5829 11.7 64.8309 11.196C66.1029 10.692 67.4949 10.44 69.0069 10.44C71.5509 10.44 73.5309 11.124 74.9469 12.492C76.3629 13.86 77.0709 15.78 77.0709 18.252C77.0709 18.636 77.0109 18.876 76.8909 18.972C76.7709 19.044 76.4349 19.08 75.8829 19.08H64.2909C64.1949 19.296 64.1469 19.692 64.1469 20.268C64.1469 22.62 64.6509 24.48 65.6589 25.848C66.6909 27.216 68.0829 27.9 69.8349 27.9C70.8429 27.9 71.8389 27.672 72.8229 27.216C73.8309 26.76 74.8029 26.112 75.7389 25.272L76.7469 26.532ZM69.7629 17.064C70.7229 17.064 71.3349 17.016 71.5989 16.92C71.8869 16.8 72.0309 16.536 72.0309 16.128C72.0309 15.072 71.7309 14.208 71.1309 13.536C70.5309 12.864 69.7749 12.528 68.8629 12.528C67.8309 12.528 66.9069 12.96 66.0909 13.824C65.2989 14.664 64.7829 15.744 64.5429 17.064H69.7629ZM97.8055 26.532C95.6215 29.004 92.8975 30.24 89.6335 30.24C88.1455 30.24 86.7895 30.012 85.5655 29.556C84.3655 29.076 83.3335 28.416 82.4695 27.576C81.6055 26.712 80.9335 25.692 80.4535 24.516C79.9735 23.34 79.7335 22.032 79.7335 20.592C79.7335 19.104 79.9855 17.748 80.4895 16.524C80.9935 15.276 81.7015 14.208 82.6135 13.32C83.5495 12.408 84.6415 11.7 85.8895 11.196C87.1615 10.692 88.5535 10.44 90.0655 10.44C92.6095 10.44 94.5895 11.124 96.0055 12.492C97.4215 13.86 98.1295 15.78 98.1295 18.252C98.1295 18.636 98.0695 18.876 97.9495 18.972C97.8295 19.044 97.4935 19.08 96.9415 19.08H85.3495C85.2535 19.296 85.2055 19.692 85.2055 20.268C85.2055 22.62 85.7095 24.48 86.7175 25.848C87.7495 27.216 89.1415 27.9 90.8935 27.9C91.9015 27.9 92.8975 27.672 93.8815 27.216C94.8895 26.76 95.8615 26.112 96.7975 25.272L97.8055 26.532ZM90.8215 17.064C91.7815 17.064 92.3935 17.016 92.6575 16.92C92.9455 16.8 93.0895 16.536 93.0895 16.128C93.0895 15.072 92.7895 14.208 92.1895 13.536C91.5895 12.864 90.8335 12.528 89.9215 12.528C88.8895 12.528 87.9655 12.96 87.1495 13.824C86.3575 14.664 85.8415 15.744 85.6015 17.064H90.8215ZM108.712 24.3C108.712 25.236 108.748 25.98 108.82 26.532C108.916 27.06 109.096 27.468 109.36 27.756C109.624 28.044 110.008 28.236 110.512 28.332C111.016 28.404 111.688 28.44 112.528 28.44V29.88H100.504V28.44C101.224 28.392 101.8 28.32 102.232 28.224C102.664 28.128 102.988 27.936 103.204 27.648C103.42 27.36 103.552 26.952 103.6 26.424C103.672 25.872 103.708 25.14 103.708 24.228V19.836C103.708 18.348 103.672 17.16 103.6 16.272C103.528 15.384 103.372 14.7 103.132 14.22C102.892 13.74 102.544 13.428 102.088 13.284C101.656 13.116 101.08 13.032 100.36 13.032V11.772L107.56 10.44L108.136 14.58H108.28C108.928 13.308 109.78 12.3 110.836 11.556C111.892 10.812 113.008 10.44 114.184 10.44C115.096 10.44 115.84 10.668 116.416 11.124C116.992 11.58 117.28 12.156 117.28 12.852C117.28 13.62 117.052 14.268 116.596 14.796C116.164 15.324 115.564 15.588 114.796 15.588C114.436 15.588 114.112 15.516 113.824 15.372C113.536 15.228 113.272 15.072 113.032 14.904C112.816 14.712 112.588 14.544 112.348 14.4C112.132 14.232 111.904 14.148 111.664 14.148C111.208 14.148 110.776 14.448 110.368 15.048C109.96 15.648 109.624 16.452 109.36 17.46C109.168 18.18 109.012 18.996 108.892 19.908C108.772 20.796 108.712 21.684 108.712 22.572V24.3ZM125.202 13.14H125.346C126.93 11.34 128.994 10.44 131.538 10.44C132.93 10.44 134.202 10.692 135.354 11.196C136.53 11.676 137.538 12.36 138.378 13.248C139.242 14.112 139.902 15.156 140.358 16.38C140.838 17.58 141.078 18.9 141.078 20.34C141.078 21.78 140.838 23.1 140.358 24.3C139.902 25.5 139.254 26.544 138.414 27.432C137.574 28.32 136.566 29.016 135.39 29.52C134.238 30 132.978 30.24 131.61 30.24C129.282 30.24 127.506 29.448 126.282 27.864H126.138V32.868C126.138 33.828 126.186 34.596 126.282 35.172C126.378 35.748 126.582 36.192 126.894 36.504C127.206 36.816 127.638 37.032 128.19 37.152C128.766 37.272 129.522 37.344 130.458 37.368V38.88H118.038V37.368C118.686 37.344 119.214 37.272 119.622 37.152C120.03 37.032 120.342 36.816 120.558 36.504C120.798 36.192 120.954 35.76 121.026 35.208C121.122 34.68 121.17 33.984 121.17 33.12V19.728C121.17 18.624 121.146 17.58 121.098 16.596C121.05 15.588 120.99 14.88 120.918 14.472C120.798 13.92 120.522 13.536 120.09 13.32C119.682 13.104 118.974 12.996 117.966 12.996V11.592L125.202 10.584V13.14ZM131.322 12.492C130.554 12.492 129.822 12.66 129.126 12.996C128.43 13.332 127.878 13.776 127.47 14.328C127.062 14.88 126.75 15.576 126.534 16.416C126.318 17.232 126.21 18.12 126.21 19.08V21.528C126.21 23.232 126.63 24.684 127.47 25.884C128.382 27.204 129.666 27.864 131.322 27.864C132.786 27.864 133.866 27.264 134.562 26.064C135.282 24.84 135.642 22.956 135.642 20.412C135.642 15.132 134.202 12.492 131.322 12.492ZM151.743 24.3C151.743 25.236 151.779 25.98 151.851 26.532C151.947 27.06 152.127 27.468 152.391 27.756C152.655 28.044 153.039 28.236 153.543 28.332C154.047 28.404 154.719 28.44 155.559 28.44V29.88H143.535V28.44C144.255 28.392 144.831 28.32 145.263 28.224C145.695 28.128 146.019 27.936 146.235 27.648C146.451 27.36 146.583 26.952 146.631 26.424C146.703 25.872 146.739 25.14 146.739 24.228V19.836C146.739 18.348 146.703 17.16 146.631 16.272C146.559 15.384 146.403 14.7 146.163 14.22C145.923 13.74 145.575 13.428 145.119 13.284C144.687 13.116 144.111 13.032 143.391 13.032V11.772L150.591 10.44L151.167 14.58H151.311C151.959 13.308 152.811 12.3 153.867 11.556C154.923 10.812 156.039 10.44 157.215 10.44C158.127 10.44 158.871 10.668 159.447 11.124C160.023 11.58 160.311 12.156 160.311 12.852C160.311 13.62 160.083 14.268 159.627 14.796C159.195 15.324 158.595 15.588 157.827 15.588C157.467 15.588 157.143 15.516 156.855 15.372C156.567 15.228 156.303 15.072 156.063 14.904C155.847 14.712 155.619 14.544 155.379 14.4C155.163 14.232 154.935 14.148 154.695 14.148C154.239 14.148 153.807 14.448 153.399 15.048C152.991 15.648 152.655 16.452 152.391 17.46C152.199 18.18 152.043 18.996 151.923 19.908C151.803 20.796 151.743 21.684 151.743 22.572V24.3ZM179.614 26.532C177.43 29.004 174.706 30.24 171.442 30.24C169.954 30.24 168.598 30.012 167.374 29.556C166.174 29.076 165.142 28.416 164.278 27.576C163.414 26.712 162.742 25.692 162.262 24.516C161.782 23.34 161.542 22.032 161.542 20.592C161.542 19.104 161.794 17.748 162.298 16.524C162.802 15.276 163.51 14.208 164.422 13.32C165.358 12.408 166.45 11.7 167.698 11.196C168.97 10.692 170.362 10.44 171.874 10.44C174.418 10.44 176.398 11.124 177.814 12.492C179.23 13.86 179.938 15.78 179.938 18.252C179.938 18.636 179.878 18.876 179.758 18.972C179.638 19.044 179.302 19.08 178.75 19.08H167.158C167.062 19.296 167.014 19.692 167.014 20.268C167.014 22.62 167.518 24.48 168.526 25.848C169.558 27.216 170.95 27.9 172.702 27.9C173.71 27.9 174.706 27.672 175.69 27.216C176.698 26.76 177.67 26.112 178.606 25.272L179.614 26.532ZM172.63 17.064C173.59 17.064 174.202 17.016 174.466 16.92C174.754 16.8 174.898 16.536 174.898 16.128C174.898 15.072 174.598 14.208 173.998 13.536C173.398 12.864 172.642 12.528 171.73 12.528C170.698 12.528 169.774 12.96 168.958 13.824C168.166 14.664 167.65 15.744 167.41 17.064H172.63ZM189.081 13.14H189.225C190.809 11.34 192.873 10.44 195.417 10.44C196.809 10.44 198.081 10.692 199.233 11.196C200.409 11.676 201.417 12.36 202.257 13.248C203.121 14.112 203.781 15.156 204.237 16.38C204.717 17.58 204.957 18.9 204.957 20.34C204.957 21.78 204.717 23.1 204.237 24.3C203.781 25.5 203.133 26.544 202.293 27.432C201.453 28.32 200.445 29.016 199.269 29.52C198.117 30 196.857 30.24 195.489 30.24C193.161 30.24 191.385 29.448 190.161 27.864H190.017V32.868C190.017 33.828 190.065 34.596 190.161 35.172C190.257 35.748 190.461 36.192 190.773 36.504C191.085 36.816 191.517 37.032 192.069 37.152C192.645 37.272 193.401 37.344 194.337 37.368V38.88H181.917V37.368C182.565 37.344 183.093 37.272 183.501 37.152C183.909 37.032 184.221 36.816 184.437 36.504C184.677 36.192 184.833 35.76 184.905 35.208C185.001 34.68 185.049 33.984 185.049 33.12V19.728C185.049 18.624 185.025 17.58 184.977 16.596C184.929 15.588 184.869 14.88 184.797 14.472C184.677 13.92 184.401 13.536 183.969 13.32C183.561 13.104 182.853 12.996 181.845 12.996V11.592L189.081 10.584V13.14ZM195.201 12.492C194.433 12.492 193.701 12.66 193.005 12.996C192.309 13.332 191.757 13.776 191.349 14.328C190.941 14.88 190.629 15.576 190.413 16.416C190.197 17.232 190.089 18.12 190.089 19.08V21.528C190.089 23.232 190.509 24.684 191.349 25.884C192.261 27.204 193.545 27.864 195.201 27.864C196.665 27.864 197.745 27.264 198.441 26.064C199.161 24.84 199.521 22.956 199.521 20.412C199.521 15.132 198.081 12.492 195.201 12.492Z" fill="black"/>
<path d="M208.278 27.576C208.278 26.808 208.53 26.16 209.034 25.632C209.562 25.08 210.21 24.804 210.978 24.804C211.77 24.804 212.43 25.08 212.958 25.632C213.486 26.16 213.75 26.808 213.75 27.576C213.75 28.32 213.486 28.956 212.958 29.484C212.43 29.988 211.77 30.24 210.978 30.24C210.21 30.24 209.562 29.988 209.034 29.484C208.53 28.956 208.278 28.32 208.278 27.576ZM224.938 23.976C224.938 24.936 224.974 25.704 225.046 26.28C225.118 26.856 225.262 27.3 225.478 27.612C225.694 27.924 226.006 28.14 226.414 28.26C226.822 28.356 227.374 28.416 228.07 28.44V29.88H216.73V28.44C217.402 28.416 217.942 28.344 218.35 28.224C218.782 28.08 219.106 27.864 219.322 27.576C219.562 27.264 219.718 26.844 219.79 26.316C219.886 25.764 219.934 25.068 219.934 24.228V19.8C219.934 18.408 219.91 17.268 219.862 16.38C219.814 15.468 219.754 14.844 219.682 14.508C219.562 13.908 219.286 13.512 218.854 13.32C218.446 13.128 217.69 13.032 216.586 13.032V11.808L224.938 10.44V23.976ZM219.646 2.808C219.646 2.016 219.91 1.356 220.438 0.828003C220.99 0.276003 221.65 3.33786e-06 222.418 3.33786e-06C223.21 3.33786e-06 223.87 0.276003 224.398 0.828003C224.95 1.356 225.226 2.016 225.226 2.808C225.226 3.576 224.95 4.236 224.398 4.788C223.87 5.316 223.21 5.58 222.418 5.58C221.65 5.58 220.99 5.316 220.438 4.788C219.91 4.236 219.646 3.576 219.646 2.808ZM237.946 24.012C237.946 24.996 237.97 25.776 238.018 26.352C238.09 26.904 238.222 27.336 238.414 27.648C238.63 27.936 238.942 28.128 239.35 28.224C239.782 28.32 240.358 28.392 241.078 28.44V29.88H229.738V28.44C230.434 28.392 230.986 28.32 231.394 28.224C231.826 28.128 232.15 27.936 232.366 27.648C232.606 27.36 232.762 26.952 232.834 26.424C232.906 25.896 232.942 25.176 232.942 24.264V19.764C232.942 18.348 232.918 17.208 232.87 16.344C232.822 15.456 232.762 14.856 232.69 14.544C232.618 14.232 232.522 13.98 232.402 13.788C232.282 13.572 232.102 13.416 231.862 13.32C231.622 13.2 231.322 13.128 230.962 13.104C230.602 13.056 230.146 13.032 229.594 13.032V11.808L236.542 10.44L237.01 13.608H237.154C237.946 12.6 238.882 11.82 239.962 11.268C241.042 10.716 242.23 10.44 243.526 10.44C245.062 10.44 246.298 10.656 247.234 11.088C248.194 11.496 249.046 12.192 249.79 13.176C250.198 13.728 250.558 14.448 250.87 15.336C251.182 16.2 251.338 17.4 251.338 18.936V24.012C251.338 24.996 251.362 25.776 251.41 26.352C251.482 26.904 251.614 27.336 251.806 27.648C252.022 27.936 252.334 28.128 252.742 28.224C253.15 28.32 253.702 28.392 254.398 28.44V29.88H243.13V28.44C243.85 28.416 244.414 28.356 244.822 28.26C245.254 28.14 245.578 27.936 245.794 27.648C246.01 27.36 246.154 26.952 246.226 26.424C246.298 25.872 246.334 25.152 246.334 24.264V19.368C246.334 18.144 246.262 17.112 246.118 16.272C245.974 15.432 245.734 14.76 245.398 14.256C245.086 13.728 244.666 13.356 244.138 13.14C243.61 12.9 242.95 12.78 242.158 12.78C241.39 12.78 240.73 12.996 240.178 13.428C239.626 13.86 239.146 14.46 238.738 15.228C238.522 15.66 238.33 16.224 238.162 16.92C238.018 17.592 237.946 18.3 237.946 19.044V24.012Z" fill="#4F46E5"/>
</svg>
